<?xml version="1.0" encoding="UTF-8" standalone="no"?>
<!-- Created with Inkscape (http://www.inkscape.org/) -->

<svg
   xmlns:dc="http://purl.org/dc/elements/1.1/"
   xmlns:cc="http://creativecommons.org/ns#"
   xmlns:rdf="http://www.w3.org/1999/02/22-rdf-syntax-ns#"
   xmlns:svg="http://www.w3.org/2000/svg"
   xmlns="http://www.w3.org/2000/svg"
   xmlns:sodipodi="http://sodipodi.sourceforge.net/DTD/sodipodi-0.dtd"
   xmlns:inkscape="http://www.inkscape.org/namespaces/inkscape"
   width="70"
   height="74"
   version="1.1"
   viewBox="0 0 70 74"
   id="svg78"
   sodipodi:docname="logo.svg"
   inkscape:version="0.92.0 r15299"
   inkscape:export-filename="D:\Projekty\Osobni - projekty\Fenix_web\sites\all\themes\multipurpose\images\logo.png"
   inkscape:export-xdpi="93"
   inkscape:export-ydpi="93">
  <sodipodi:namedview
     pagecolor="#ffffff"
     bordercolor="#666666"
     borderopacity="1"
     objecttolerance="10"
     gridtolerance="10"
     guidetolerance="10"
     inkscape:pageopacity="0"
     inkscape:pageshadow="2"
     inkscape:window-width="1920"
     inkscape:window-height="1027"
     id="namedview80"
     showgrid="false"
     inkscape:zoom="6.3783784"
     inkscape:cx="26.741549"
     inkscape:cy="28.959772"
     inkscape:window-x="-8"
     inkscape:window-y="-8"
     inkscape:window-maximized="1"
     inkscape:current-layer="svg78" />
  <metadata
     id="metadata2">
    <rdf:RDF>
      <cc:Work
         rdf:about="">
        <dc:format>image/svg+xml</dc:format>
        <dc:type
           rdf:resource="http://purl.org/dc/dcmitype/StillImage" />
        <dc:title></dc:title>
      </cc:Work>
    </rdf:RDF>
  </metadata>
  <defs
     id="defs8">
    <style
       type="text/css"
       id="style4"><![CDATA[
    .str2 {stroke:#2B2A29;stroke-width:20}
    .str1 {stroke:#2B2A29;stroke-width:20}
    .str0 {stroke:black;stroke-width:20}
    .fil2 {fill:#2B2A29}
    .fil0 {fill:red}
    .fil1 {fill:#2B2A29;fill-rule:nonzero}
   ]]></style>
    <style
       type="text/css"
       id="style6"><![CDATA[
    .str3 {stroke:#2B2A29;stroke-width:20}
    .str1 {stroke:#2B2A29;stroke-width:20}
    .str0 {stroke:black;stroke-width:20}
    .str2 {stroke:#2B2A29;stroke-width:100}
    .fil3 {fill:none}
    .fil2 {fill:#2B2A29}
    .fil0 {fill:red}
    .fil1 {fill:#2B2A29;fill-rule:nonzero}
   ]]></style>
  </defs>
  <ellipse
     style="opacity:1;fill:#ffffff;fill-opacity:1;stroke-width:1.05964208"
     id="path82"
     cx="34.976322"
     cy="36.972771"
     rx="34.754597"
     ry="36.694645" />
  <g
     transform="matrix(.0034681 0 0 .0034681 -2.0165 -1.2858)"
     id="g76"
     shape-rendering="geometricPrecision"
     image-rendering="optimizeQuality"
     clip-rule="evenodd"
     fill-rule="evenodd">
    <g
       id="g16"
       stroke-width="20"
       stroke="#000"
       fill="#f00">
      <path
         class="fil0 str0"
         d="m13701 3269c1317 3582 914 5775-604 7394 537-79 872-223 1374-734-590 1188-1268 1966-2190 2921-596-579-886-1509-872-2791 264-232 389-652 374-1258 5-434 96-831 274-1190-1364 604-2377 1954-3040 4050 179-291 416-470 710-536-193 282-392 847-598 1695-1024-1028-1821-2019-2392-2972 490 423 1005 693 1545 810-1788-1931-2095-4348-922-7252-832 968-1335 2018-1508 3152-196-1222-200-2261-12-3115-1209 816-1919 1842-2131 3078 79 1034 295 2106 648 3215-762-1101-1310-2143-1645-3127-640 1045-939 2088-897 3127 777 672 1595 1208 2455 1607 412 665 956 1172 1632 1520-1215-127-2245-584-3090-1371 753 2126 2265 4177 4535 6155-731-977-1209-2015-1433-3115 686 1552 1754 2587 3202 3103 219-685 522-1221 910-1607 203 1113-121 2147-972 3103 112 54 394 181 485 253 65 52 911-1232 876-1263-15-13-559 1547-545 1561 254 247 154 181 376 441 13 15-12-16 0 0 8 10-8-10 0 0 140 179 291 406 415 625 110-244 279-446 407-630 13-18-13 18 0 0 14-19-15 18 0 0 242-292 117-194 354-428 21-21-481-1592-494-1566-17 35 809 1328 866 1271 114-114 278-213 452-283-719-1010-1057-1991-937-3108 500 459 821 1009 984 1645 1379-703 2450-1630 3164-3111-282 1386-662 2340-1436 3114 2059-1636 3458-3607 4539-6149-1090 808-2022 1179-3092 1367 780-443 1222-901 1634-1518 1088-501 1866-1059 2456-1605 48-1453-257-2488-903-3128-458 1280-984 2345-1639 3126 461-1414 509-2655 496-3334-236-1143-1022-2097-2264-3047 195 1269 112 2223-20 3057-446-1384-912-2440-1529-3150z"
         id="path10" />
      <path
         class="fil0 str0"
         d="m5915 5354c521-1183 1015-1905 1525-2259 482-553 1002-1005 1558-1358-1045 312-2009 848-2891 1607-152 777-202 1417-191 2010z"
         id="path12" />
      <path
         class="fil0 str0"
         d="m15127 5338c-497-1198-945-1982-1436-2350-458-566-988-908-1524-1277 1018 343 1983 781 2827 1565 127 782 161 1469 132 2062z"
         id="path14" />
    </g>
    <g
       id="g58"
       fill="#2b2a29">
      <path
         class="fil1"
         d="m9303 3020v906l197-238-154-229h643l-316 362 189 340 180 242h-603l113-198-97-192-154 170 123 220h-569l180-242v-877l-180-241 446-22zm1110 0v1141l180 241h-626l180-241v-878l-180-241zm1053 439v703l180 241h-446v-198c-58 161-145 241-261 241-69 0-129-29-178-87s-74-127-74-209v-427l-180-242 446-22v527c0 80 8 136 23 168s42 48 80 48c43 0 77-25 104-76s41-116 41-196v-206l-214-242 479-22zm528-439v625c54-138 121-207 203-207 90 0 167 52 233 156 65 104 98 228 98 372 0 136-35 250-105 342s-156 139-258 139c-133 0-230-88-293-264l-121 220h-21v-1119l-180-241 446-22zm138 634c-39 0-72 29-98 87s-39 130-39 217c0 197 43 295 128 295 86 0 130-104 130-311 0-192-40-288-121-288zm-4504 1863h1249v636l-249-403h-437v271h237l185-158v641l-185-197h-237v219l236 307h-798l234-307v-708l-234-301zm2522 0v569l-239-352h-449v287h247l175-154v594l-175-179h-247v291h449l257-378v638h-1269l234-305v-705l-234-306h1250zm-307-530-223 412h-132l66-412zm966 530 396 710v-404l-234-307h652l-234 307v1009h-329l-401-748v440l234 308h-652l234-308v-702l-234-307h567zm810 0h785l-233 307v702l233 308h-785l234-308v-702zm2152 0-212 229-268 382 334 474 202 230h-733l138-198-159-231-164 231 159 198h-633l202-220 291-403-315-453-191-240h717l-127 219 130 177 151-199-138-197h618z"
         id="path18"
         fill-rule="nonzero" />
      <g
         id="g56"
         stroke-width="20"
         stroke="#2b2a29">
        <path
           class="fil2 str1"
           d="m10891 8964c131-211 301-389 511-533-280 106-451 283-511 533z"
           id="path20" />
        <path
           class="fil2 str1"
           d="m10996 8813c272-121 385-221 347-329 101 12-17 294-347 329z"
           id="path22" />
        <circle
           class="fil2 str1"
           cx="11248"
           cy="8613"
           r="40"
           id="circle24" />
        <path
           class="fil2 str1"
           d="m11338 12578c285 50 588 167 899 319-619-559-968-1692-891-3034-117 1337-133 2187-8 2715z"
           id="path26" />
        <path
           class="fil2 str1"
           d="m13097 10664c1611-263 2157-1703 2133-4245-890 2235-1529 3699-2133 4245z"
           id="path28" />
        <path
           class="fil2 str1"
           d="m8281 10658c-1539-133-2349-1499-2430-4099 1021 2141 1831 3508 2430 4099z"
           id="path30" />
        <path
           class="fil2 str1"
           d="m5915 5347c604-1915 1618-3083 3082-3610-584 378-1104 830-1558 1358-695 644-1190 1359-1525 2252z"
           id="path32" />
        <path
           class="fil2 str1"
           d="m15128 5345c-472-1902-1385-3059-2962-3635 565 396 1058 767 1488 1307 656 662 1173 1428 1474 2328z"
           id="path34" />
        <path
           class="fil2 str1"
           d="m11309 16004c1692 181 3091-197 4148-1466-680 1445-1750 2371-3164 3111-165-646-493-1194-984-1645z"
           id="path36" />
        <path
           class="fil2 str1"
           d="m10025 16028c-1555 190-2926-308-4112-1495 626 1493 1693 2527 3202 3103 176-609 479-1144 910-1607z"
           id="path38" />
        <path
           class="fil2 str1"
           d="m15469 12869 1548-3126c433 1302 238 2001-1548 3126z"
           id="path40" />
        <path
           class="fil2 str1"
           d="m5901 12864c-1585-813-2100-1856-1545-3127z"
           id="path42" />
        <path
           class="fil2 str1"
           d="m9128 12820c1023 1685 2074 1696 3152 31-1076 2960-2127 2950-3152-31z"
           id="path44" />
        <path
           class="fil2 str1"
           d="m14021 17651c1887-1849 3286-3820 4539-6149-1040 2488-2439 4459-4539 6149z"
           id="path46" />
        <path
           class="fil2 str1"
           d="m2811 11493c1066 2067 2577 4119 4535 6155-2330-2063-3842-4115-4535-6155z"
           id="path48" />
        <path
           class="fil2 str1"
           d="m10664 19112c-62 342-202 680-419 1011 153 198 291 406 415 625 115-223 251-433 407-630-196-291-318-625-402-1006z"
           id="path50" />
        <path
           class="fil2 str1"
           d="m10246 20123c-128-406 6-1481 169-2002-152 317-430 1218-545 1561 147 135 253 284 376 441z"
           id="path52" />
        <path
           class="fil2 str1"
           d="m10927 18123c148 484 240 1555 137 1996 121-159 210-295 356-431-99-315-338-1250-494-1566z"
           id="path54" />
      </g>
    </g>
    <g
       id="g74"
       stroke="#2b2a29">
      <ellipse
         class="fil3 str1"
         cx="10687"
         cy="11077"
         rx="9721"
         ry="10257"
         id="ellipse60"
         stroke-width="20"
         fill="none" />
      <ellipse
         class="fil3 str2"
         cx="10687"
         cy="11044"
         rx="10042"
         ry="10595"
         id="ellipse62"
         stroke-width="100"
         fill="none" />
      <g
         id="g72"
         stroke-width="20"
         fill="#2b2a29">
        <path
           class="fil2 str3"
           d="m9932 10858c-437 104-743 371-916 803 178-291 415-469 710-536 63-97 132-187 206-268z"
           id="path64" />
        <path
           class="fil2 str3"
           d="m11408 10060c182-293 307-662 375-1107-1 177-20 351-57 522-45 229-151 424-317 586z"
           id="path66" />
        <path
           class="fil2 str3"
           d="m4145 10804c5 150 47 330 124 539-921-440-1739-976-2455-1607 1097 696 1740 1026 2330 1068z"
           id="path68" />
        <path
           class="fil2 str3"
           d="m17210 10735c752-12 1549-487 2349-989-668 622-1487 1157-2456 1605 73-241 108-486 107-615z"
           id="path70" />
      </g>
    </g>
  </g>
</svg>
